<mxfile host="app.diagrams.net" modified="2021-09-29T19:43:12.703Z" agent="5.0 (Windows NT 10.0; Win64; x64) AppleWebKit/537.36 (KHTML, like Gecko) Chrome/94.0.4606.61 Safari/537.36 Edg/94.0.992.31" etag="FgcpYbTwKtT0xidcMZIX" version="15.3.8" type="github">
  <diagram id="9vX4tCrfDb9G4lVlB1nP" name="Page-1">
    <mxGraphModel dx="1958" dy="1560" grid="1" gridSize="10" guides="1" tooltips="1" connect="1" arrows="1" fold="1" page="1" pageScale="1" pageWidth="850" pageHeight="1100" math="0" shadow="0">
      <root>
        <mxCell id="0" />
        <mxCell id="1" parent="0" />
        <mxCell id="EPOQXZZhX6MLrFk2YY44-1" value="" style="shape=cylinder3;whiteSpace=wrap;html=1;boundedLbl=1;backgroundOutline=1;size=15;" parent="1" vertex="1">
          <mxGeometry x="710" y="-20" width="120" height="160" as="geometry" />
        </mxCell>
        <mxCell id="EPOQXZZhX6MLrFk2YY44-4" value="" style="rounded=1;whiteSpace=wrap;html=1;rotation=90;fillColor=#7EA6E0;" parent="1" vertex="1">
          <mxGeometry x="-77.5" y="172.5" width="345" height="150" as="geometry" />
        </mxCell>
        <mxCell id="EPOQXZZhX6MLrFk2YY44-5" value="" style="rounded=1;whiteSpace=wrap;html=1;rotation=90;" parent="1" vertex="1">
          <mxGeometry x="440" y="175" width="340" height="150" as="geometry" />
        </mxCell>
        <mxCell id="EPOQXZZhX6MLrFk2YY44-6" value="" style="rounded=1;whiteSpace=wrap;html=1;rotation=90;fillColor=#7EA6E0;" parent="1" vertex="1">
          <mxGeometry x="270" y="175" width="340" height="150" as="geometry" />
        </mxCell>
        <mxCell id="EPOQXZZhX6MLrFk2YY44-7" value="" style="rounded=1;whiteSpace=wrap;html=1;rotation=90;" parent="1" vertex="1">
          <mxGeometry x="97.5" y="172.5" width="345" height="150" as="geometry" />
        </mxCell>
        <mxCell id="EPOQXZZhX6MLrFk2YY44-8" value="" style="rounded=1;whiteSpace=wrap;html=1;rotation=90;fillColor=#7EA6E0;" parent="1" vertex="1">
          <mxGeometry x="-252.5" y="172.5" width="345" height="150" as="geometry" />
        </mxCell>
        <mxCell id="EPOQXZZhX6MLrFk2YY44-9" value="Agente experto&lt;br&gt;" style="text;html=1;strokeColor=none;fillColor=none;align=center;verticalAlign=middle;whiteSpace=wrap;rounded=0;" parent="1" vertex="1">
          <mxGeometry x="-122.5" y="30" width="85" height="40" as="geometry" />
        </mxCell>
        <mxCell id="EPOQXZZhX6MLrFk2YY44-11" value="Interfaz de Usuario" style="text;html=1;strokeColor=none;fillColor=none;align=center;verticalAlign=middle;whiteSpace=wrap;rounded=0;" parent="1" vertex="1">
          <mxGeometry x="35" y="30" width="110" height="40" as="geometry" />
        </mxCell>
        <mxCell id="EPOQXZZhX6MLrFk2YY44-12" value="Dialogo" style="text;html=1;strokeColor=none;fillColor=none;align=center;verticalAlign=middle;whiteSpace=wrap;rounded=0;" parent="1" vertex="1">
          <mxGeometry x="240" y="40" width="40" height="20" as="geometry" />
        </mxCell>
        <mxCell id="EPOQXZZhX6MLrFk2YY44-13" value="Motor de Inferencia&amp;nbsp;" style="text;html=1;strokeColor=none;fillColor=none;align=center;verticalAlign=middle;whiteSpace=wrap;rounded=0;" parent="1" vertex="1">
          <mxGeometry x="390" y="40" width="70" height="20" as="geometry" />
        </mxCell>
        <mxCell id="EPOQXZZhX6MLrFk2YY44-14" value="Dialogo" style="text;html=1;strokeColor=none;fillColor=none;align=center;verticalAlign=middle;whiteSpace=wrap;rounded=0;" parent="1" vertex="1">
          <mxGeometry x="580" y="40" width="40" height="20" as="geometry" />
        </mxCell>
        <mxCell id="EPOQXZZhX6MLrFk2YY44-15" value="Base de Hecho" style="text;html=1;strokeColor=none;fillColor=none;align=center;verticalAlign=middle;whiteSpace=wrap;rounded=0;" parent="1" vertex="1">
          <mxGeometry x="720" y="-50" width="90" height="20" as="geometry" />
        </mxCell>
        <mxCell id="EPOQXZZhX6MLrFk2YY44-17" value="" style="shape=cylinder3;whiteSpace=wrap;html=1;boundedLbl=1;backgroundOutline=1;size=15;" parent="1" vertex="1">
          <mxGeometry x="710" y="170" width="120" height="180" as="geometry" />
        </mxCell>
        <mxCell id="EPOQXZZhX6MLrFk2YY44-18" value="Base de conocimiento" style="text;html=1;strokeColor=none;fillColor=none;align=center;verticalAlign=middle;whiteSpace=wrap;rounded=0;" parent="1" vertex="1">
          <mxGeometry x="727.5" y="175" width="80" height="20" as="geometry" />
        </mxCell>
        <mxCell id="EPOQXZZhX6MLrFk2YY44-19" value="" style="shape=cylinder3;whiteSpace=wrap;html=1;boundedLbl=1;backgroundOutline=1;size=15;" parent="1" vertex="1">
          <mxGeometry x="710" y="385" width="120" height="220" as="geometry" />
        </mxCell>
        <mxCell id="EPOQXZZhX6MLrFk2YY44-20" value="Base de Datos Principal" style="text;html=1;strokeColor=none;fillColor=none;align=center;verticalAlign=middle;whiteSpace=wrap;rounded=0;" parent="1" vertex="1">
          <mxGeometry x="712.5" y="385" width="115" height="20" as="geometry" />
        </mxCell>
        <mxCell id="EPOQXZZhX6MLrFk2YY44-21" value="Registro de Analisis" style="rounded=0;whiteSpace=wrap;html=1;" parent="1" vertex="1">
          <mxGeometry x="720" y="50" width="100" height="40" as="geometry" />
        </mxCell>
        <mxCell id="EPOQXZZhX6MLrFk2YY44-22" value="Ventas&amp;nbsp;" style="rounded=0;whiteSpace=wrap;html=1;" parent="1" vertex="1">
          <mxGeometry x="726.5" y="470" width="87" height="30" as="geometry" />
        </mxCell>
        <mxCell id="EPOQXZZhX6MLrFk2YY44-23" value="Categoria" style="rounded=0;whiteSpace=wrap;html=1;" parent="1" vertex="1">
          <mxGeometry x="726.5" y="510" width="87" height="30" as="geometry" />
        </mxCell>
        <mxCell id="EPOQXZZhX6MLrFk2YY44-24" value="cliente" style="rounded=0;whiteSpace=wrap;html=1;" parent="1" vertex="1">
          <mxGeometry x="725" y="430" width="87" height="30" as="geometry" />
        </mxCell>
        <mxCell id="EPOQXZZhX6MLrFk2YY44-26" value="Guardar" style="rounded=0;whiteSpace=wrap;html=1;" parent="1" vertex="1">
          <mxGeometry x="560" y="97.5" width="100" height="30" as="geometry" />
        </mxCell>
        <mxCell id="EPOQXZZhX6MLrFk2YY44-27" value="Guardar los Datos" style="rounded=0;whiteSpace=wrap;html=1;" parent="1" vertex="1">
          <mxGeometry x="560" y="370" width="100" height="30" as="geometry" />
        </mxCell>
        <mxCell id="EPOQXZZhX6MLrFk2YY44-29" value="Historial de Analisis" style="rounded=0;whiteSpace=wrap;html=1;" parent="1" vertex="1">
          <mxGeometry x="720" y="217.5" width="100" height="30" as="geometry" />
        </mxCell>
        <mxCell id="EPOQXZZhX6MLrFk2YY44-31" value="" style="endArrow=classic;startArrow=classic;html=1;entryX=0;entryY=0.25;entryDx=0;entryDy=0;exitX=1;exitY=0.25;exitDx=0;exitDy=0;edgeStyle=orthogonalEdgeStyle;" parent="1" source="EPOQXZZhX6MLrFk2YY44-26" target="EPOQXZZhX6MLrFk2YY44-21" edge="1">
          <mxGeometry width="50" height="50" relative="1" as="geometry">
            <mxPoint x="650" y="100" as="sourcePoint" />
            <mxPoint x="700" y="50" as="targetPoint" />
            <Array as="points">
              <mxPoint x="690" y="105" />
              <mxPoint x="690" y="60" />
            </Array>
          </mxGeometry>
        </mxCell>
        <mxCell id="EPOQXZZhX6MLrFk2YY44-32" value="" style="endArrow=classic;startArrow=classic;html=1;entryX=0;entryY=0.5;entryDx=0;entryDy=0;edgeStyle=orthogonalEdgeStyle;exitX=1;exitY=0.75;exitDx=0;exitDy=0;" parent="1" source="EPOQXZZhX6MLrFk2YY44-26" target="EPOQXZZhX6MLrFk2YY44-29" edge="1">
          <mxGeometry width="50" height="50" relative="1" as="geometry">
            <mxPoint x="670" y="170" as="sourcePoint" />
            <mxPoint x="710" y="160" as="targetPoint" />
          </mxGeometry>
        </mxCell>
        <mxCell id="EPOQXZZhX6MLrFk2YY44-33" value="" style="endArrow=classic;startArrow=classic;html=1;edgeStyle=orthogonalEdgeStyle;" parent="1" target="EPOQXZZhX6MLrFk2YY44-27" edge="1">
          <mxGeometry width="50" height="50" relative="1" as="geometry">
            <mxPoint x="707" y="520" as="sourcePoint" />
            <mxPoint x="650" y="500" as="targetPoint" />
            <Array as="points">
              <mxPoint x="707" y="520" />
              <mxPoint x="690" y="520" />
              <mxPoint x="690" y="385" />
            </Array>
          </mxGeometry>
        </mxCell>
        <mxCell id="EPOQXZZhX6MLrFk2YY44-35" value="Metodo de registro de los analisis." style="rounded=0;whiteSpace=wrap;html=1;" parent="1" vertex="1">
          <mxGeometry x="390" y="90" width="100" height="45" as="geometry" />
        </mxCell>
        <mxCell id="EPOQXZZhX6MLrFk2YY44-37" value="Metodos de Predecir Ventas" style="rounded=0;whiteSpace=wrap;html=1;" parent="1" vertex="1">
          <mxGeometry x="390" y="162.5" width="100" height="45" as="geometry" />
        </mxCell>
        <mxCell id="EPOQXZZhX6MLrFk2YY44-39" value="Metodos de categoria de productos" style="rounded=0;whiteSpace=wrap;html=1;" parent="1" vertex="1">
          <mxGeometry x="390" y="305" width="100" height="45" as="geometry" />
        </mxCell>
        <mxCell id="EPOQXZZhX6MLrFk2YY44-41" value="Metodo de Guardar" style="rounded=0;whiteSpace=wrap;html=1;" parent="1" vertex="1">
          <mxGeometry x="390" y="375" width="100" height="30" as="geometry" />
        </mxCell>
        <mxCell id="EPOQXZZhX6MLrFk2YY44-42" value="" style="endArrow=classic;startArrow=classic;html=1;exitX=1;exitY=0.5;exitDx=0;exitDy=0;entryX=0;entryY=0.5;entryDx=0;entryDy=0;edgeStyle=orthogonalEdgeStyle;" parent="1" source="EPOQXZZhX6MLrFk2YY44-35" target="EPOQXZZhX6MLrFk2YY44-26" edge="1">
          <mxGeometry width="50" height="50" relative="1" as="geometry">
            <mxPoint x="500" y="170" as="sourcePoint" />
            <mxPoint x="550" y="120" as="targetPoint" />
          </mxGeometry>
        </mxCell>
        <mxCell id="EPOQXZZhX6MLrFk2YY44-46" value="Capturar los Datos Requeridos" style="rounded=0;whiteSpace=wrap;html=1;" parent="1" vertex="1">
          <mxGeometry x="220" y="150" width="100" height="45" as="geometry" />
        </mxCell>
        <mxCell id="EPOQXZZhX6MLrFk2YY44-47" value="Capturar los resultados" style="rounded=0;whiteSpace=wrap;html=1;" parent="1" vertex="1">
          <mxGeometry x="220" y="247.5" width="100" height="45" as="geometry" />
        </mxCell>
        <mxCell id="EPOQXZZhX6MLrFk2YY44-48" value="" style="endArrow=classic;startArrow=classic;html=1;edgeStyle=orthogonalEdgeStyle;entryX=0;entryY=0.75;entryDx=0;entryDy=0;" parent="1" edge="1" target="EPOQXZZhX6MLrFk2YY44-35">
          <mxGeometry width="50" height="50" relative="1" as="geometry">
            <mxPoint x="320" y="270" as="sourcePoint" />
            <mxPoint x="390" y="160" as="targetPoint" />
            <Array as="points">
              <mxPoint x="380" y="270" />
              <mxPoint x="380" y="124" />
            </Array>
          </mxGeometry>
        </mxCell>
        <mxCell id="EPOQXZZhX6MLrFk2YY44-49" value="" style="endArrow=classic;startArrow=classic;html=1;entryX=0;entryY=0.25;entryDx=0;entryDy=0;edgeStyle=orthogonalEdgeStyle;" parent="1" target="EPOQXZZhX6MLrFk2YY44-35" edge="1">
          <mxGeometry width="50" height="50" relative="1" as="geometry">
            <mxPoint x="320" y="180" as="sourcePoint" />
            <mxPoint x="380" y="150" as="targetPoint" />
          </mxGeometry>
        </mxCell>
        <mxCell id="EPOQXZZhX6MLrFk2YY44-50" value="Visualliza informe y confecciona los datos" style="rounded=0;whiteSpace=wrap;html=1;fillColor=#FFFFFF;" parent="1" vertex="1">
          <mxGeometry x="50" y="247.5" width="100" height="45" as="geometry" />
        </mxCell>
        <mxCell id="EPOQXZZhX6MLrFk2YY44-51" value="Requiere Programar para los datos datos." style="rounded=0;whiteSpace=wrap;html=1;fillColor=#FFFFFF;" parent="1" vertex="1">
          <mxGeometry x="45" y="150" width="100" height="45" as="geometry" />
        </mxCell>
        <mxCell id="EPOQXZZhX6MLrFk2YY44-52" value="" style="endArrow=classic;startArrow=classic;html=1;entryX=0;entryY=0.5;entryDx=0;entryDy=0;exitX=1;exitY=0.5;exitDx=0;exitDy=0;" parent="1" source="EPOQXZZhX6MLrFk2YY44-51" target="EPOQXZZhX6MLrFk2YY44-46" edge="1">
          <mxGeometry width="50" height="50" relative="1" as="geometry">
            <mxPoint x="160" y="210" as="sourcePoint" />
            <mxPoint x="210" y="160" as="targetPoint" />
          </mxGeometry>
        </mxCell>
        <mxCell id="EPOQXZZhX6MLrFk2YY44-53" value="" style="endArrow=classic;startArrow=classic;html=1;entryX=0;entryY=0.5;entryDx=0;entryDy=0;exitX=1;exitY=0.5;exitDx=0;exitDy=0;" parent="1" source="EPOQXZZhX6MLrFk2YY44-50" target="EPOQXZZhX6MLrFk2YY44-47" edge="1">
          <mxGeometry width="50" height="50" relative="1" as="geometry">
            <mxPoint x="160" y="300" as="sourcePoint" />
            <mxPoint x="210" y="250" as="targetPoint" />
          </mxGeometry>
        </mxCell>
        <mxCell id="EPOQXZZhX6MLrFk2YY44-58" style="edgeStyle=orthogonalEdgeStyle;rounded=0;orthogonalLoop=1;jettySize=auto;html=1;" parent="1" source="EPOQXZZhX6MLrFk2YY44-54" target="EPOQXZZhX6MLrFk2YY44-55" edge="1">
          <mxGeometry relative="1" as="geometry" />
        </mxCell>
        <mxCell id="EPOQXZZhX6MLrFk2YY44-54" value="Solicita Informe" style="rounded=0;whiteSpace=wrap;html=1;fillColor=#FFFFFF;" parent="1" vertex="1">
          <mxGeometry x="-130" y="150" width="100" height="45" as="geometry" />
        </mxCell>
        <mxCell id="EPOQXZZhX6MLrFk2YY44-55" value="Analiza resultados del modulo" style="rounded=0;whiteSpace=wrap;html=1;fillColor=#FFFFFF;" parent="1" vertex="1">
          <mxGeometry x="-130" y="250" width="100" height="42.5" as="geometry" />
        </mxCell>
        <mxCell id="EPOQXZZhX6MLrFk2YY44-62" value="" style="endArrow=classic;startArrow=classic;html=1;entryX=0;entryY=0.5;entryDx=0;entryDy=0;" parent="1" target="EPOQXZZhX6MLrFk2YY44-51" edge="1">
          <mxGeometry width="50" height="50" relative="1" as="geometry">
            <mxPoint x="-30" y="173" as="sourcePoint" />
            <mxPoint x="40" y="170" as="targetPoint" />
          </mxGeometry>
        </mxCell>
        <mxCell id="EPOQXZZhX6MLrFk2YY44-63" value="" style="endArrow=classic;startArrow=classic;html=1;exitX=1;exitY=0.5;exitDx=0;exitDy=0;entryX=0;entryY=0.5;entryDx=0;entryDy=0;" parent="1" source="EPOQXZZhX6MLrFk2YY44-55" target="EPOQXZZhX6MLrFk2YY44-50" edge="1">
          <mxGeometry width="50" height="50" relative="1" as="geometry">
            <mxPoint x="-10" y="300" as="sourcePoint" />
            <mxPoint x="40" y="250" as="targetPoint" />
          </mxGeometry>
        </mxCell>
        <mxCell id="PUuipZCuFJtjNG1w0-sb-1" value="Metodo de Analisis Estadistico" style="rounded=0;whiteSpace=wrap;html=1;" vertex="1" parent="1">
          <mxGeometry x="390" y="240" width="100" height="45" as="geometry" />
        </mxCell>
        <mxCell id="PUuipZCuFJtjNG1w0-sb-3" value="Producto" style="rounded=0;whiteSpace=wrap;html=1;" vertex="1" parent="1">
          <mxGeometry x="726.5" y="550" width="87" height="30" as="geometry" />
        </mxCell>
        <mxCell id="PUuipZCuFJtjNG1w0-sb-4" value="Facilitador de Datos" style="rounded=0;whiteSpace=wrap;html=1;" vertex="1" parent="1">
          <mxGeometry x="-130" y="315" width="95" height="47.5" as="geometry" />
        </mxCell>
        <mxCell id="PUuipZCuFJtjNG1w0-sb-5" value="Obtener Datos" style="rounded=0;whiteSpace=wrap;html=1;" vertex="1" parent="1">
          <mxGeometry x="50" y="315" width="95" height="47.5" as="geometry" />
        </mxCell>
        <mxCell id="PUuipZCuFJtjNG1w0-sb-6" value="" style="endArrow=classic;startArrow=classic;html=1;exitX=1;exitY=0.5;exitDx=0;exitDy=0;" edge="1" parent="1" source="PUuipZCuFJtjNG1w0-sb-4">
          <mxGeometry width="50" height="50" relative="1" as="geometry">
            <mxPoint x="-10" y="370" as="sourcePoint" />
            <mxPoint x="60" y="339" as="targetPoint" />
          </mxGeometry>
        </mxCell>
        <mxCell id="PUuipZCuFJtjNG1w0-sb-8" value="Capturar los resultados" style="rounded=0;whiteSpace=wrap;html=1;" vertex="1" parent="1">
          <mxGeometry x="220" y="330" width="100" height="45" as="geometry" />
        </mxCell>
        <mxCell id="PUuipZCuFJtjNG1w0-sb-9" value="" style="endArrow=classic;startArrow=classic;html=1;exitX=1;exitY=0.5;exitDx=0;exitDy=0;entryX=0;entryY=0.5;entryDx=0;entryDy=0;edgeStyle=orthogonalEdgeStyle;" edge="1" parent="1" source="PUuipZCuFJtjNG1w0-sb-5" target="PUuipZCuFJtjNG1w0-sb-8">
          <mxGeometry width="50" height="50" relative="1" as="geometry">
            <mxPoint x="160" y="370" as="sourcePoint" />
            <mxPoint x="210" y="320" as="targetPoint" />
          </mxGeometry>
        </mxCell>
        <mxCell id="PUuipZCuFJtjNG1w0-sb-10" value="" style="endArrow=classic;startArrow=classic;html=1;exitX=1;exitY=0.5;exitDx=0;exitDy=0;edgeStyle=orthogonalEdgeStyle;entryX=0;entryY=0.5;entryDx=0;entryDy=0;" edge="1" parent="1" source="PUuipZCuFJtjNG1w0-sb-8" target="EPOQXZZhX6MLrFk2YY44-41">
          <mxGeometry width="50" height="50" relative="1" as="geometry">
            <mxPoint x="340" y="390" as="sourcePoint" />
            <mxPoint x="390" y="360" as="targetPoint" />
          </mxGeometry>
        </mxCell>
        <mxCell id="PUuipZCuFJtjNG1w0-sb-11" value="" style="endArrow=classic;startArrow=classic;html=1;exitX=1;exitY=0.75;exitDx=0;exitDy=0;entryX=0;entryY=0.5;entryDx=0;entryDy=0;edgeStyle=orthogonalEdgeStyle;" edge="1" parent="1" source="EPOQXZZhX6MLrFk2YY44-41" target="EPOQXZZhX6MLrFk2YY44-27">
          <mxGeometry width="50" height="50" relative="1" as="geometry">
            <mxPoint x="470" y="420" as="sourcePoint" />
            <mxPoint x="520" y="370" as="targetPoint" />
          </mxGeometry>
        </mxCell>
        <mxCell id="PUuipZCuFJtjNG1w0-sb-12" value="Metedo estadistico de Holt" style="rounded=0;whiteSpace=wrap;html=1;" vertex="1" parent="1">
          <mxGeometry x="720" y="292.5" width="100" height="45" as="geometry" />
        </mxCell>
        <mxCell id="PUuipZCuFJtjNG1w0-sb-13" value="Obtener datos de los productos vendidos" style="rounded=0;whiteSpace=wrap;html=1;" vertex="1" parent="1">
          <mxGeometry x="560" y="310" width="100" height="45" as="geometry" />
        </mxCell>
        <mxCell id="PUuipZCuFJtjNG1w0-sb-14" value="" style="endArrow=classic;startArrow=classic;html=1;edgeStyle=orthogonalEdgeStyle;entryX=-0.008;entryY=0.35;entryDx=0;entryDy=0;entryPerimeter=0;" edge="1" parent="1" target="EPOQXZZhX6MLrFk2YY44-19">
          <mxGeometry width="50" height="50" relative="1" as="geometry">
            <mxPoint x="660" y="350" as="sourcePoint" />
            <mxPoint x="700" y="480" as="targetPoint" />
            <Array as="points">
              <mxPoint x="660" y="350" />
              <mxPoint x="700" y="350" />
              <mxPoint x="700" y="462" />
            </Array>
          </mxGeometry>
        </mxCell>
        <mxCell id="PUuipZCuFJtjNG1w0-sb-15" value="" style="endArrow=classic;startArrow=classic;html=1;exitX=1;exitY=0.5;exitDx=0;exitDy=0;entryX=0;entryY=0.5;entryDx=0;entryDy=0;edgeStyle=orthogonalEdgeStyle;" edge="1" parent="1" source="PUuipZCuFJtjNG1w0-sb-13" target="PUuipZCuFJtjNG1w0-sb-12">
          <mxGeometry width="50" height="50" relative="1" as="geometry">
            <mxPoint x="680" y="340" as="sourcePoint" />
            <mxPoint x="730" y="290" as="targetPoint" />
          </mxGeometry>
        </mxCell>
        <mxCell id="PUuipZCuFJtjNG1w0-sb-16" value="" style="endArrow=classic;startArrow=classic;html=1;entryX=0;entryY=0.5;entryDx=0;entryDy=0;exitX=1;exitY=0.5;exitDx=0;exitDy=0;edgeStyle=orthogonalEdgeStyle;" edge="1" parent="1" source="EPOQXZZhX6MLrFk2YY44-39" target="PUuipZCuFJtjNG1w0-sb-13">
          <mxGeometry width="50" height="50" relative="1" as="geometry">
            <mxPoint x="510" y="360" as="sourcePoint" />
            <mxPoint x="560" y="310" as="targetPoint" />
          </mxGeometry>
        </mxCell>
        <mxCell id="PUuipZCuFJtjNG1w0-sb-17" value="" style="endArrow=classic;startArrow=classic;html=1;exitX=0;exitY=0.25;exitDx=0;exitDy=0;entryX=1;entryY=0.5;entryDx=0;entryDy=0;edgeStyle=orthogonalEdgeStyle;" edge="1" parent="1" source="PUuipZCuFJtjNG1w0-sb-13" target="PUuipZCuFJtjNG1w0-sb-1">
          <mxGeometry width="50" height="50" relative="1" as="geometry">
            <mxPoint x="369.28932188134524" y="300" as="sourcePoint" />
            <mxPoint x="369.28932188134524" y="250" as="targetPoint" />
          </mxGeometry>
        </mxCell>
        <mxCell id="PUuipZCuFJtjNG1w0-sb-18" value="Matriz ADL" style="rounded=0;whiteSpace=wrap;html=1;" vertex="1" parent="1">
          <mxGeometry x="718.5" y="255" width="100" height="30" as="geometry" />
        </mxCell>
        <mxCell id="PUuipZCuFJtjNG1w0-sb-21" value="" style="endArrow=classic;startArrow=classic;html=1;exitX=0.5;exitY=0;exitDx=0;exitDy=0;entryX=0.5;entryY=1;entryDx=0;entryDy=0;" edge="1" parent="1" source="EPOQXZZhX6MLrFk2YY44-37" target="EPOQXZZhX6MLrFk2YY44-35">
          <mxGeometry width="50" height="50" relative="1" as="geometry">
            <mxPoint x="420" y="180" as="sourcePoint" />
            <mxPoint x="470" y="130" as="targetPoint" />
          </mxGeometry>
        </mxCell>
        <mxCell id="PUuipZCuFJtjNG1w0-sb-22" value="" style="endArrow=classic;startArrow=classic;html=1;exitX=0.5;exitY=0;exitDx=0;exitDy=0;entryX=0.5;entryY=1;entryDx=0;entryDy=0;" edge="1" parent="1" source="PUuipZCuFJtjNG1w0-sb-1" target="EPOQXZZhX6MLrFk2YY44-37">
          <mxGeometry width="50" height="50" relative="1" as="geometry">
            <mxPoint x="450" y="172.5" as="sourcePoint" />
            <mxPoint x="450" y="145" as="targetPoint" />
          </mxGeometry>
        </mxCell>
        <mxCell id="PUuipZCuFJtjNG1w0-sb-23" value="" style="endArrow=classic;startArrow=classic;html=1;" edge="1" parent="1">
          <mxGeometry width="50" height="50" relative="1" as="geometry">
            <mxPoint x="440" y="310" as="sourcePoint" />
            <mxPoint x="440" y="280" as="targetPoint" />
          </mxGeometry>
        </mxCell>
        <mxCell id="PUuipZCuFJtjNG1w0-sb-24" value="" style="endArrow=classic;startArrow=classic;html=1;exitX=0.5;exitY=0;exitDx=0;exitDy=0;entryX=0.5;entryY=1;entryDx=0;entryDy=0;" edge="1" parent="1" source="EPOQXZZhX6MLrFk2YY44-41" target="EPOQXZZhX6MLrFk2YY44-39">
          <mxGeometry width="50" height="50" relative="1" as="geometry">
            <mxPoint x="450" y="320" as="sourcePoint" />
            <mxPoint x="450" y="290" as="targetPoint" />
          </mxGeometry>
        </mxCell>
        <mxCell id="PUuipZCuFJtjNG1w0-sb-25" value="Estandarez de clasificacion de venta" style="rounded=0;whiteSpace=wrap;html=1;" vertex="1" parent="1">
          <mxGeometry x="560" y="217.5" width="100" height="45" as="geometry" />
        </mxCell>
        <mxCell id="PUuipZCuFJtjNG1w0-sb-26" value="" style="endArrow=classic;startArrow=classic;html=1;exitX=1;exitY=0.5;exitDx=0;exitDy=0;entryX=0;entryY=0.5;entryDx=0;entryDy=0;edgeStyle=orthogonalEdgeStyle;" edge="1" parent="1" source="EPOQXZZhX6MLrFk2YY44-37" target="PUuipZCuFJtjNG1w0-sb-25">
          <mxGeometry width="50" height="50" relative="1" as="geometry">
            <mxPoint x="510" y="220" as="sourcePoint" />
            <mxPoint x="560" y="170" as="targetPoint" />
          </mxGeometry>
        </mxCell>
        <mxCell id="PUuipZCuFJtjNG1w0-sb-27" value="" style="endArrow=classic;startArrow=classic;html=1;entryX=0;entryY=0.25;entryDx=0;entryDy=0;exitX=1;exitY=0.5;exitDx=0;exitDy=0;edgeStyle=orthogonalEdgeStyle;" edge="1" parent="1" source="PUuipZCuFJtjNG1w0-sb-25" target="PUuipZCuFJtjNG1w0-sb-18">
          <mxGeometry width="50" height="50" relative="1" as="geometry">
            <mxPoint x="660" y="290" as="sourcePoint" />
            <mxPoint x="730.7106781186548" y="240" as="targetPoint" />
          </mxGeometry>
        </mxCell>
      </root>
    </mxGraphModel>
  </diagram>
</mxfile>
